Coordinates
nRows=17
nColumns=24

# SIMM Motion File Header:
name Coordinates
datacolumns 24
datarows 17
otherdata 1
range 0.41000000000000003000 0.42600000000000005000

Units are S.I. units (second, meters, Newtons, ...)
Angles are in degrees.

endheader
time	pelvis_tx	pelvis_ty	pelvis_tz	pelvis_tilt	pelvis_list	pelvis_rotation	hip_flexion_r	hip_adduction_r	hip_rotation_r	knee_angle_r	ankle_angle_r	subtalar_angle_r	mtp_angle_r	hip_flexion_l	hip_adduction_l	hip_rotation_l	knee_angle_l	ankle_angle_l	subtalar_angle_l	mtp_angle_l	lumbar_extension	lumbar_bending	lumbar_rotation
      0.41000000000000003000	     -1.28203378300973150000	      0.98341949290446007000	     -0.19134834514773288000	     14.14713102567996300000	     -3.37737314447614610000	     -8.63558307793012150000	    -40.60271255836691800000	     -3.09920369266297960000	      7.47431081847047540000	     -5.59882588490951690000	     -1.25527603317193550000	      0.00000000000000000000	      0.00000000000000000000	      7.12237237476313640000	     -7.06556820535201440000	     -2.51908251536214590000	      5.63814203326081650000	      0.74471485347916444000	      0.00000000000000000000	      0.00000000000000000000	    -25.19998521331153500000	     -0.02547932070111973100	     12.18296518120480700000
      0.41100000000000003000	     -1.27997504558231490000	      0.98321812991816682000	     -0.19148308066132400000	     14.14532600474601200000	     -3.31952726813501010000	     -8.64959799442705800000	    -40.59668625680237100000	     -3.17338843262743620000	      7.42205317295706470000	     -5.78832267695755310000	     -1.42264281684755800000	     -0.00000000000000000002	     -0.00000000000000000010	      7.21399812646093340000	     -6.98639353288752130000	     -2.56467585523923920000	      5.38447731474147420000	      0.64915851131359259000	     -0.00000000000000000131	     -0.00000000000000000181	    -25.17249666170559800000	     -0.10601583879800461000	     12.18673023939018300000
      0.41200000000000003000	     -1.27791635656062200000	      0.98300969051789300000	     -0.19161964623926256000	     14.14418653914802900000	     -3.26031701304521040000	     -8.66286985995468940000	    -40.58900571866921300000	     -3.24832783442238960000	      7.36844174823921530000	     -5.98139296521834400000	     -1.59370319608288850000	     -0.00000000000000000061	     -0.00000000000000000021	      7.30616355001517800000	     -6.90529291504906870000	     -2.61031854017249600000	      5.12623551210810290000	      0.54960759204419152000	     -0.00000000000000001076	      0.00000000000000001241	    -25.14536117284035300000	     -0.18773160703586908000	     12.18928754540087800000
      0.41300000000000003000	     -1.27585773313207620000	      0.98279419004419410000	     -0.19175810025008763000	     14.14368331954317700000	     -3.19977958172019590000	     -8.67538000962851190000	    -40.57962434663198800000	     -3.32397809263802600000	      7.31349219179112970000	     -6.17805202616949600000	     -1.76846079336519260000	     -0.00000000000000000015	     -0.00000000000000000312	      7.39890328054093250000	     -6.82229349041705820000	     -2.65598409938962240000	      4.86344566146325170000	      0.44857735095959445000	     -0.00000000000000003080	      0.00000000000000004821	    -25.11855498869456200000	     -0.27057237793643740000	     12.19063085536767600000
      0.41400000000000003000	     -1.27379923039038000000	      0.98257175157401688000	     -0.19189845897455271000	     14.14381727222950900000	     -3.13792847843328810000	     -8.68712903315883800000	    -40.56851563560444900000	     -3.40032987196018020000	      7.25722022917857590000	     -6.37832308173538110000	     -1.94690629563504870000	      0.00000000000000000076	     -0.00000000000000000688	      7.49218535851219510000	     -6.73741349290735060000	     -2.70163289976103900000	      4.59622560993679570000	      0.34617757919660358000	     -0.00000000000000004699	      0.00000000000000011266	    -25.09208664721442300000	     -0.35452235834514984000	     12.19075851721191300000
      0.41500000000000004000	     -1.27174090462807100000	      0.98234250909545751000	     -0.19204073683642844000	     14.14458978096999800000	     -3.07477710167871270000	     -8.69811849980196780000	    -40.55565545948027800000	     -3.47737416175866980000	      7.19964257183945030000	     -6.58222892710935170000	     -2.12902763827372520000	      0.00000000000000000128	     -0.00000000000000001132	      7.58597381966643610000	     -6.65067201477813440000	     -2.74722608847967380000	      4.32469724847210020000	      0.24246727789117525000	     -0.00000000000000006210	      0.00000000000000017707	    -25.06596710950521600000	     -0.43956576494848831000	     12.18966977445104800000
      0.41600000000000004000	     -1.26968281279093390000	      0.98210660660094617000	     -0.19218494689064386000	     14.14600229080505900000	     -3.01033902481491160000	     -8.70835067605865020000	    -40.54102185041074300000	     -3.55510175920512420000	      7.14077688208948840000	     -6.78979181608684360000	     -2.31481006364706280000	      0.00000000000000000084	     -0.00000000000000001573	      7.68022965455423190000	     -6.56208919059960750000	     -2.79272537022174650000	      4.04898403803666880000	      0.13748376477299198000	     -0.00000000000000007497	      0.00000000000000022735	    -25.04020939775681500000	     -0.52568629513389664000	     12.18736466294032700000
      0.41700000000000004000	     -1.26762501256005660000	      0.98186419811356962000	     -0.19233110073478682000	     14.14805636845154900000	     -2.94462790821291790000	     -8.71782855999309620000	    -40.52459501722921700000	     -3.63350332654202160000	      7.08064172521914070000	     -7.00103341133623400000	     -2.50423609203495400000	      0.00000000000000000111	     -0.00000000000000002068	      7.77491078111764010000	     -6.47168615497878360000	     -2.83809298743581180000	      3.76921111339321870000	      0.03123691313405840500	     -0.00000000000000008178	      0.00000000000000024644	    -25.01482859744313100000	     -0.61286721571729630000	     12.18384399021269000000
      0.41800000000000004000	     -1.26556756213477060000	      0.98161544642666354000	     -0.19247920871458127000	     14.15075336880828900000	     -2.87765790545605430000	     -8.72655576752044840000	    -40.50635690454670600000	     -3.71256889490800470000	      7.01925675544886920000	     -7.21597473089630090000	     -2.69728543491549110000	      0.00000000000000000072	     -0.00000000000000002535	      7.86997287859258240000	     -6.37948542451390030000	     -2.88329068795511880000	      3.48550419554438400000	     -0.07626903407699436900	     -0.00000000000000011535	      0.00000000000000031263	    -24.98984135826224700000	     -0.70109082183106619000	     12.17910941197873600000
      0.41900000000000004000	     -1.26351052010447470000	      0.98136052201318180000	     -0.19262928018240821000	     14.15409416520662600000	     -2.80944399158411610000	     -8.73453642315192620000	    -40.48629076604122900000	     -3.79228747455701810000	      6.95664285319952480000	     -7.43463606469463210000	     -2.89393492217116280000	      0.00000000000000000053	     -0.00000000000000002983	      7.96537015133277220000	     -6.28551113740704450000	     -2.92827913702299060000	      3.19798870390353910000	     -0.18501395766767426000	     -0.00000000000000015935	      0.00000000000000038989	    -24.96526540245412200000	     -0.79033800666071508000	     12.17316348118130900000
      0.42000000000000004000	     -1.26145394591037490000	      0.98109960332230894000	     -0.19278132322453265000	     14.15807949490647400000	     -2.74000157221351380000	     -8.74177528815857840000	    -40.46438131437887600000	     -3.87264753754496870000	      6.89282193831975580000	     -7.65703687802655080000	     -3.09415851934331610000	     -0.00000000000000000079	     -0.00000000000000003312	      8.06105487715788450000	     -6.18978869060331150000	     -2.97301866276149210000	      2.90679075522445500000	     -0.29498874396841718000	     -0.00000000000000019237	      0.00000000000000041784	    -24.94111968336327200000	     -0.88058883037669589000	     12.16600956635657500000
      0.42100000000000004000	     -1.25939790008755590000	      0.98083287640339079000	     -0.19293534471194318000	     14.16271001915945000000	     -2.66934641950209220000	     -8.74827776296021220000	    -40.44061457502272100000	     -3.95363713389218940000	      6.82781691780244330000	     -7.88319570554431340000	     -3.29792730940502480000	     -0.00000000000000000277	     -0.00000000000000003375	      8.15697755712307430000	     -6.09234459417493300000	     -3.01746942135252330000	      2.61203737026079000000	     -0.40619607809238828000	     -0.00000000000000023177	      0.00000000000000047618	    -24.91742420320507300000	     -0.97182266116226967000	     12.15765180962095800000
      0.42200000000000004000	     -1.25734244451882970000	      0.98056053409447430000	     -0.19309135035733790000	     14.16798634071010500000	     -2.59749467714230380000	     -8.75404986676233320000	    -40.41497764326791000000	     -4.03524395871482790000	      6.76165166757545320000	     -8.11313003841139850000	     -3.50520946503691770000	     -0.00000000000000000502	     -0.00000000000000003186	      8.25308721731114230000	     -5.99320638272946220000	     -3.06159132331411500000	      2.31385647397243050000	     -0.51865187205164731000	     -0.00000000000000026934	      0.00000000000000054980	    -24.89419973239087700000	     -1.06401826617333420000	     12.14809508748634500000
      0.42300000000000004000	     -1.25528764274925810000	      0.98028277503940453000	     -0.19324934480160333000	     14.17390901864637000000	     -2.52446288177450030000	     -8.75909820765556550000	    -40.38745836911014200000	     -4.11745543327204280000	      6.69435102138460450000	     -8.34685618976292080000	     -3.71597021652743780000	     -0.00000000000000000715	     -0.00000000000000002903	      8.34933179237230580000	     -5.89240250715554840000	     -3.10534398227829330000	      2.01237689810008420000	     -0.63238605426249228000	     -0.00000000000000030126	      0.00000000000000060725	    -24.87146745112585200000	     -1.15715391514175470000	     12.13734496557732500000
      0.42400000000000004000	     -1.25323356041040100000	      0.97999980279435683000	     -0.19340933175346417000	     14.18047860744288300000	     -2.45026796126581910000	     -8.76342994612622130000	    -40.35804498756349500000	     -4.20025883914891910000	      6.62594074171337950000	     -8.58438912927302230000	     -3.93017181946586640000	     -0.00000000000000000987	     -0.00000000000000002414	      8.44565855207921250000	     -5.78996216010628030000	     -3.14868671790412690000	      1.70772849961094050000	     -0.74744060668570544000	     -0.00000000000000033088	      0.00000000000000065966	    -24.84924852958666000000	     -1.25120753912567630000	     12.12540763538468300000
      0.42500000000000004000	     -1.25118026560336750000	      0.97971182429875125000	     -0.19357131414710926000	     14.18769563238012800000	     -2.37492733297238880000	     -8.76705272986820820000	    -40.32672563104842600000	     -4.28364138079287300000	      6.55644754528624050000	     -8.82574231045446920000	     -4.14777350902808180000	     -0.00000000000000001350	     -0.00000000000000001871	      8.54201471454041260000	     -5.68591517065428500000	     -3.19157851077558870000	      1.40004201447244590000	     -0.86386988600673187000	     -0.00000000000000035831	      0.00000000000000070648	    -24.82756358397014300000	     -1.34615680848893680000	     12.11228986275251400000
      0.42600000000000005000	     -1.24912782886105170000	      0.97941904743954411000	     -0.19373529492513128000	     14.19556020846847000000	     -2.29845939646310170000	     -8.76997446525892240000	    -40.29348750585270300000	     -4.36758981441195270000	      6.48589928722688570000	     -9.07092745068352000000	     -4.36873141012597890000	     -0.00000000000000001790	     -0.00000000000000001247	      8.63834874429676700000	     -5.58029200722096790000	     -3.23397863216011720000	      1.08944785867584250000	     -0.98170478381797166000	     -0.00000000000000038616	      0.00000000000000074404	    -24.80643170353379300000	     -1.44197865694419320000	     12.09799898900781700000
